<svg width="236" height="40" viewBox="0 0 236 40" fill="none" xmlns="http://www.w3.org/2000/svg">
<g filter="url(#filter0_d_2_5)">
<path d="M35.319 27.5147V31.6468H21.7561V27.5147H35.319ZM23.551 5.93591V31.6468H18V5.93591H23.551Z" fill="#222222"/>
<path d="M49.5664 27.0733V12.5402H54.8953V31.6468H49.881L49.5664 27.0733ZM50.1585 23.153L51.7313 23.1177C51.7313 24.3891 51.5771 25.5723 51.2687 26.6671C50.9603 27.7502 50.4977 28.692 49.881 29.4925C49.2642 30.2812 48.4871 30.8993 47.5496 31.3466C46.6121 31.7822 45.5081 32 44.2375 32C43.263 32 42.3625 31.8705 41.536 31.6115C40.7219 31.3407 40.0188 30.9228 39.4267 30.3578C38.8469 29.7809 38.3905 29.0451 38.0574 28.1504C37.7367 27.244 37.5764 26.155 37.5764 24.8836V12.5402H42.9053V24.9189C42.9053 25.484 42.9731 25.9608 43.1088 26.3492C43.2568 26.7377 43.4604 27.0556 43.7194 27.3028C43.9785 27.55 44.2807 27.7266 44.6261 27.8326C44.9838 27.9385 45.3785 27.9915 45.8103 27.9915C46.9081 27.9915 47.7716 27.7796 48.4007 27.3558C49.0422 26.932 49.4924 26.3551 49.7514 25.6252C50.0228 24.8836 50.1585 24.0595 50.1585 23.153Z" fill="#222222"/>
<path d="M64.591 12.5402V31.6468H59.2436V12.5402H64.591ZM58.9105 7.5605C58.9105 6.81884 59.1819 6.20667 59.7247 5.724C60.2674 5.24133 60.9952 5 61.908 5C62.8085 5 63.5301 5.24133 64.0729 5.724C64.628 6.20667 64.9056 6.81884 64.9056 7.5605C64.9056 8.30216 64.628 8.91432 64.0729 9.39699C63.5301 9.87966 62.8085 10.121 61.908 10.121C60.9952 10.121 60.2674 9.87966 59.7247 9.39699C59.1819 8.91432 58.9105 8.30216 58.9105 7.5605Z" fill="#222222"/>
<path d="M79.8191 26.3669C79.8191 26.002 79.7081 25.6723 79.4861 25.378C79.264 25.0837 78.8508 24.813 78.2463 24.5657C77.6542 24.3067 76.7969 24.0713 75.6744 23.8594C74.6629 23.6475 73.7192 23.3826 72.8434 23.0647C71.9799 22.7351 71.2275 22.3407 70.586 21.8816C69.9569 21.4225 69.4635 20.881 69.1058 20.257C68.748 19.6213 68.5692 18.8973 68.5692 18.085C68.5692 17.2845 68.748 16.5311 69.1058 15.8247C69.4758 15.1184 70.0001 14.4944 70.6785 13.9529C71.3693 13.3996 72.2081 12.9699 73.195 12.6638C74.1941 12.346 75.3167 12.1871 76.5626 12.1871C78.3018 12.1871 79.7944 12.4519 81.0403 12.9817C82.2985 13.5114 83.2607 14.2413 83.9268 15.1714C84.6053 16.0896 84.9445 17.1373 84.9445 18.3146H79.6156C79.6156 17.8201 79.5046 17.3787 79.2825 16.9902C79.0728 16.5899 78.7398 16.278 78.2833 16.0543C77.8393 15.8188 77.2595 15.7011 76.544 15.7011C75.9519 15.7011 75.44 15.8012 75.0083 16.0013C74.5765 16.1897 74.2435 16.4487 74.0091 16.7783C73.7871 17.0961 73.6761 17.4493 73.6761 17.8378C73.6761 18.1321 73.7377 18.397 73.8611 18.6324C73.9968 18.8561 74.2126 19.0621 74.5087 19.2505C74.8047 19.4388 75.1871 19.6154 75.6559 19.7802C76.137 19.9333 76.7291 20.0746 77.4322 20.2041C78.8754 20.4866 80.1645 20.8574 81.2994 21.3165C82.4342 21.7639 83.3347 22.3761 84.0008 23.153C84.6669 23.9182 85 24.9248 85 26.1727C85 27.0203 84.8026 27.7973 84.4079 28.5036C84.0132 29.2099 83.4457 29.828 82.7056 30.3578C81.9655 30.8757 81.0773 31.2819 80.0411 31.5762C79.0173 31.8587 77.8639 32 76.5811 32C74.7184 32 73.1395 31.6821 71.8442 31.0464C70.5614 30.4107 69.5869 29.6043 68.9207 28.6272C68.267 27.6383 67.9401 26.6259 67.9401 25.5899H72.9914C73.0161 26.2845 73.2011 26.8437 73.5465 27.2675C73.9043 27.6913 74.3545 27.9974 74.8973 28.1857C75.4524 28.3741 76.0506 28.4683 76.6921 28.4683C77.3829 28.4683 77.9565 28.38 78.4129 28.2034C78.8693 28.015 79.2147 27.7678 79.449 27.4617C79.6958 27.1439 79.8191 26.7789 79.8191 26.3669Z" fill="#222222"/>
</g>
<g filter="url(#filter1_d_2_5)">
<path d="M107.958 31.5569H103.024L103.055 27.5111H107.958C109.182 27.5111 110.215 27.2056 111.055 26.5947C111.896 25.9723 112.529 25.0675 112.954 23.8803C113.39 22.693 113.608 21.258 113.608 19.5752V18.3476C113.608 17.0566 113.484 15.9213 113.235 14.9415C112.996 13.9618 112.638 13.1376 112.161 12.4691C111.683 11.8006 111.097 11.2992 110.402 10.9649C109.706 10.6191 108.907 10.4462 108.005 10.4462H102.93V6.38317H108.005C109.52 6.38317 110.905 6.67133 112.161 7.24765C113.427 7.81245 114.521 8.62506 115.445 9.68549C116.368 10.7459 117.079 12.0138 117.577 13.4892C118.086 14.9531 118.34 16.584 118.34 18.3822V19.5752C118.34 21.3617 118.086 22.9927 117.577 24.4681C117.079 25.9435 116.368 27.2114 115.445 28.2718C114.532 29.3207 113.437 30.1334 112.161 30.7097C110.895 31.2745 109.494 31.5569 107.958 31.5569ZM105.67 6.38317V31.5569H101V6.38317H105.67Z" fill="#E9B949"/>
<path d="M120.737 22.3934V22.0303C120.737 20.6586 120.914 19.3965 121.266 18.2439C121.619 17.0797 122.133 16.0711 122.807 15.2182C123.482 14.3652 124.312 13.7024 125.298 13.2299C126.284 12.7458 127.415 12.5037 128.691 12.5037C129.968 12.5037 131.104 12.7458 132.1 13.2299C133.096 13.7024 133.932 14.3652 134.606 15.2182C135.291 16.0711 135.81 17.0797 136.163 18.2439C136.515 19.3965 136.692 20.6586 136.692 22.0303V22.3934C136.692 23.7535 136.515 25.0156 136.163 26.1798C135.81 27.3324 135.291 28.341 134.606 29.2055C133.932 30.0584 133.101 30.7212 132.116 31.1938C131.13 31.6664 129.999 31.9027 128.722 31.9027C127.446 31.9027 126.31 31.6664 125.313 31.1938C124.328 30.7212 123.492 30.0584 122.807 29.2055C122.133 28.341 121.619 27.3324 121.266 26.1798C120.914 25.0156 120.737 23.7535 120.737 22.3934ZM125.22 22.0303V22.3934C125.22 23.1772 125.282 23.9091 125.407 24.5891C125.531 25.2692 125.728 25.8686 125.998 26.3873C126.278 26.8944 126.642 27.2921 127.088 27.5802C127.534 27.8684 128.079 28.0125 128.722 28.0125C129.345 28.0125 129.879 27.8684 130.326 27.5802C130.772 27.2921 131.13 26.8944 131.4 26.3873C131.669 25.8686 131.867 25.2692 131.991 24.5891C132.126 23.9091 132.193 23.1772 132.193 22.3934V22.0303C132.193 21.2695 132.126 20.5549 131.991 19.8864C131.867 19.2063 131.664 18.6069 131.384 18.0882C131.114 17.558 130.756 17.1431 130.31 16.8434C129.864 16.5437 129.324 16.3939 128.691 16.3939C128.058 16.3939 127.519 16.5437 127.072 16.8434C126.636 17.1431 126.278 17.558 125.998 18.0882C125.728 18.6069 125.531 19.2063 125.407 19.8864C125.282 20.5549 125.22 21.2695 125.22 22.0303Z" fill="#E9B949"/>
<path d="M149.409 27.0788V12.8495H153.892V31.5569H149.674L149.409 27.0788ZM149.907 23.2406L151.23 23.206C151.23 24.4508 151.1 25.6092 150.841 26.6812C150.581 27.7416 150.192 28.6637 149.674 29.4475C149.155 30.2198 148.501 30.8249 147.712 31.2629C146.924 31.6894 145.995 31.9027 144.926 31.9027C144.106 31.9027 143.349 31.7759 142.653 31.5223C141.969 31.2572 141.377 30.848 140.879 30.2947C140.391 29.7299 140.007 29.0095 139.727 28.1335C139.457 27.246 139.322 26.1798 139.322 24.9349V12.8495H143.805V24.9695C143.805 25.5228 143.862 25.9896 143.977 26.37C144.101 26.7503 144.272 27.0616 144.49 27.3036C144.708 27.5457 144.962 27.7186 145.253 27.8223C145.554 27.926 145.886 27.9779 146.249 27.9779C147.173 27.9779 147.899 27.7704 148.428 27.3555C148.968 26.9405 149.347 26.3757 149.565 25.6611C149.793 24.9349 149.907 24.1281 149.907 23.2406Z" fill="#E9B949"/>
<path d="M161.799 16.9298V31.5569H157.316V12.8495H161.534L161.799 16.9298ZM166.873 12.7285L166.796 17.3448C166.578 17.3102 166.313 17.2814 166.002 17.2583C165.701 17.2238 165.426 17.2065 165.177 17.2065C164.544 17.2065 163.994 17.2987 163.527 17.4831C163.07 17.656 162.686 17.9153 162.375 18.2611C162.074 18.6069 161.846 19.0276 161.69 19.5233C161.545 20.0189 161.462 20.5837 161.441 21.2177L160.538 20.9065C160.538 19.6962 160.647 18.5839 160.865 17.5696C161.083 16.5437 161.4 15.6504 161.815 14.8897C162.24 14.1289 162.759 13.5411 163.371 13.1261C163.983 12.7112 164.684 12.5037 165.473 12.5037C165.722 12.5037 165.976 12.5267 166.235 12.5729C166.495 12.6074 166.707 12.6593 166.873 12.7285Z" fill="#E9B949"/>
<path d="M177.551 27.3382V19.0046C177.551 18.4052 177.463 17.8923 177.287 17.4658C177.11 17.0278 176.835 16.6878 176.462 16.4457C176.099 16.2037 175.626 16.0826 175.045 16.0826C174.547 16.0826 174.117 16.1806 173.753 16.3766C173.39 16.561 173.11 16.8319 172.913 17.1892C172.716 17.535 172.617 17.9442 172.617 18.4167H168.134C168.134 17.6214 168.3 16.8664 168.632 16.1518C168.964 15.4372 169.447 14.809 170.08 14.2672C170.713 13.714 171.465 13.2817 172.337 12.9705C173.219 12.6593 174.205 12.5037 175.294 12.5037C176.602 12.5037 177.764 12.7458 178.781 13.2299C179.798 13.714 180.597 14.4401 181.178 15.4084C181.77 16.3766 182.065 17.5868 182.065 19.0392V27.0443C182.065 28.0701 182.123 28.9116 182.237 29.5686C182.351 30.214 182.517 30.7788 182.735 31.2629V31.5569H178.205C177.987 31.0497 177.821 30.4157 177.707 29.655C177.603 28.8827 177.551 28.1105 177.551 27.3382ZM178.143 20.163L178.174 22.9812H175.668C175.077 22.9812 174.563 23.0561 174.127 23.206C173.691 23.3558 173.333 23.5691 173.053 23.8457C172.773 24.1108 172.565 24.422 172.43 24.7793C172.306 25.1366 172.244 25.5285 172.244 25.955C172.244 26.3815 172.332 26.7676 172.508 27.1134C172.685 27.4477 172.939 27.7128 173.271 27.9088C173.603 28.0932 173.992 28.1854 174.438 28.1854C175.113 28.1854 175.699 28.0355 176.197 27.7359C176.695 27.4362 177.079 27.0673 177.349 26.6293C177.629 26.1913 177.775 25.7764 177.785 25.3845L178.968 27.4938C178.802 27.9664 178.574 28.4563 178.283 28.9634C178.003 29.4706 177.645 29.9489 177.209 30.3985C176.773 30.8365 176.249 31.1995 175.637 31.4877C175.025 31.7643 174.298 31.9027 173.458 31.9027C172.389 31.9027 171.419 31.6664 170.547 31.1938C169.686 30.7097 169.001 30.0469 168.492 29.2055C167.994 28.3525 167.745 27.3843 167.745 26.3008C167.745 25.3211 167.911 24.4508 168.243 23.6901C168.575 22.9293 169.063 22.2896 169.706 21.7709C170.36 21.2407 171.175 20.8431 172.15 20.578C173.126 20.3013 174.257 20.163 175.543 20.163H178.143Z" fill="#E9B949"/>
<path d="M195.467 27.4765V5H199.981V31.5569H195.919L195.467 27.4765ZM184.821 22.4279V22.0649C184.821 20.6356 184.966 19.3389 185.256 18.1747C185.547 16.999 185.972 15.9904 186.533 15.149C187.093 14.3076 187.783 13.6563 188.603 13.1953C189.423 12.7342 190.357 12.5037 191.405 12.5037C192.391 12.5037 193.252 12.7342 193.989 13.1953C194.736 13.6563 195.369 14.3133 195.888 15.1663C196.417 16.0077 196.842 17.0048 197.164 18.1574C197.486 19.2985 197.719 20.5491 197.864 21.9093V22.7046C197.719 24.0071 197.486 25.2173 197.164 26.3354C196.842 27.4535 196.417 28.4332 195.888 29.2746C195.369 30.1045 194.736 30.75 193.989 31.2111C193.242 31.6721 192.37 31.9027 191.374 31.9027C190.326 31.9027 189.392 31.6664 188.572 31.1938C187.762 30.7212 187.078 30.0584 186.517 29.2055C185.967 28.3525 185.547 27.3497 185.256 26.1971C184.966 25.0444 184.821 23.7881 184.821 22.4279ZM189.303 22.0649V22.4279C189.303 23.2002 189.355 23.9206 189.459 24.5891C189.573 25.2577 189.755 25.8513 190.004 26.37C190.263 26.8771 190.595 27.2748 191 27.563C191.415 27.8396 191.918 27.9779 192.51 27.9779C193.278 27.9779 193.911 27.7877 194.409 27.4074C194.907 27.0155 195.286 26.4795 195.545 25.7994C195.815 25.1194 195.971 24.3356 196.012 23.448V21.1831C195.981 20.4569 195.888 19.8057 195.732 19.2294C195.587 18.6415 195.369 18.1401 195.078 17.7252C194.798 17.3102 194.445 16.9875 194.02 16.7569C193.605 16.5264 193.112 16.4112 192.541 16.4112C191.96 16.4112 191.462 16.561 191.047 16.8607C190.632 17.1488 190.294 17.5465 190.035 18.0537C189.786 18.5608 189.599 19.1602 189.475 19.8518C189.36 20.5318 189.303 21.2695 189.303 22.0649Z" fill="#E9B949"/>
<path d="M202.768 22.3934V22.0303C202.768 20.6586 202.944 19.3965 203.297 18.2439C203.65 17.0797 204.163 16.0711 204.838 15.2182C205.512 14.3652 206.343 13.7024 207.328 13.2299C208.314 12.7458 209.445 12.5037 210.722 12.5037C211.998 12.5037 213.134 12.7458 214.13 13.2299C215.127 13.7024 215.962 14.3652 216.637 15.2182C217.321 16.0711 217.84 17.0797 218.193 18.2439C218.546 19.3965 218.722 20.6586 218.722 22.0303V22.3934C218.722 23.7535 218.546 25.0156 218.193 26.1798C217.84 27.3324 217.321 28.341 216.637 29.2055C215.962 30.0584 215.132 30.7212 214.146 31.1938C213.16 31.6664 212.029 31.9027 210.753 31.9027C209.476 31.9027 208.34 31.6664 207.344 31.1938C206.358 30.7212 205.523 30.0584 204.838 29.2055C204.163 28.341 203.65 27.3324 203.297 26.1798C202.944 25.0156 202.768 23.7535 202.768 22.3934ZM207.251 22.0303V22.3934C207.251 23.1772 207.313 23.9091 207.437 24.5891C207.562 25.2692 207.759 25.8686 208.029 26.3873C208.309 26.8944 208.672 27.2921 209.118 27.5802C209.565 27.8684 210.109 28.0125 210.753 28.0125C211.375 28.0125 211.91 27.8684 212.356 27.5802C212.802 27.2921 213.16 26.8944 213.43 26.3873C213.7 25.8686 213.897 25.2692 214.022 24.5891C214.156 23.9091 214.224 23.1772 214.224 22.3934V22.0303C214.224 21.2695 214.156 20.5549 214.022 19.8864C213.897 19.2063 213.695 18.6069 213.414 18.0882C213.145 17.558 212.787 17.1431 212.34 16.8434C211.894 16.5437 211.355 16.3939 210.722 16.3939C210.089 16.3939 209.549 16.5437 209.103 16.8434C208.667 17.1431 208.309 17.558 208.029 18.0882C207.759 18.6069 207.562 19.2063 207.437 19.8864C207.313 20.5549 207.251 21.2695 207.251 22.0303Z" fill="#E9B949"/>
</g>
<defs>
<filter id="filter0_d_2_5" x="14" y="5" width="75" height="35" filterUnits="userSpaceOnUse" color-interpolation-filters="sRGB">
<feFlood flood-opacity="0" result="BackgroundImageFix"/>
<feColorMatrix in="SourceAlpha" type="matrix" values="0 0 0 0 0 0 0 0 0 0 0 0 0 0 0 0 0 0 127 0" result="hardAlpha"/>
<feOffset dy="4"/>
<feGaussianBlur stdDeviation="2"/>
<feComposite in2="hardAlpha" operator="out"/>
<feColorMatrix type="matrix" values="0 0 0 0 0 0 0 0 0 0 0 0 0 0 0 0 0 0 0.25 0"/>
<feBlend mode="normal" in2="BackgroundImageFix" result="effect1_dropShadow_2_5"/>
<feBlend mode="normal" in="SourceGraphic" in2="effect1_dropShadow_2_5" result="shape"/>
</filter>
<filter id="filter1_d_2_5" x="97" y="5" width="125.722" height="34.9027" filterUnits="userSpaceOnUse" color-interpolation-filters="sRGB">
<feFlood flood-opacity="0" result="BackgroundImageFix"/>
<feColorMatrix in="SourceAlpha" type="matrix" values="0 0 0 0 0 0 0 0 0 0 0 0 0 0 0 0 0 0 127 0" result="hardAlpha"/>
<feOffset dy="4"/>
<feGaussianBlur stdDeviation="2"/>
<feComposite in2="hardAlpha" operator="out"/>
<feColorMatrix type="matrix" values="0 0 0 0 0 0 0 0 0 0 0 0 0 0 0 0 0 0 0.25 0"/>
<feBlend mode="normal" in2="BackgroundImageFix" result="effect1_dropShadow_2_5"/>
<feBlend mode="normal" in="SourceGraphic" in2="effect1_dropShadow_2_5" result="shape"/>
</filter>
</defs>
</svg>
