<svg width="185" height="27" viewBox="0 0 185 27" fill="none" xmlns="http://www.w3.org/2000/svg">
<path d="M18.6104 26H12.0771L7.84375 17.8115L6.12988 18.8369V26H0.314453V4.58398H6.12988V13.8857C6.37402 13.417 6.65234 12.9482 6.96484 12.4795C7.28711 12.0107 7.59961 11.5664 7.90234 11.1465L12.3994 4.58398H18.7275L11.9746 14.1787L18.6104 26Z" fill="#222222"/>
<path d="M28.0732 9.11035C29.6846 9.11035 31.0762 9.39355 32.248 9.95996C33.4199 10.5166 34.3232 11.3564 34.958 12.4795C35.5928 13.6025 35.9102 15.0088 35.9102 16.6982V19.2471H25.6709C25.7197 20.1162 26.042 20.8291 26.6377 21.3857C27.2432 21.9424 28.1318 22.2207 29.3037 22.2207C30.3389 22.2207 31.2861 22.1182 32.1455 21.9131C33.0146 21.708 33.9082 21.3906 34.8262 20.9609V25.0771C34.0254 25.4971 33.1514 25.8047 32.2041 26C31.2568 26.1953 30.0605 26.293 28.6152 26.293C26.9453 26.293 25.4512 25.9951 24.1328 25.3994C22.8145 24.8037 21.7744 23.8809 21.0127 22.6309C20.2607 21.3809 19.8848 19.7744 19.8848 17.8115C19.8848 15.8193 20.2266 14.1836 20.9102 12.9043C21.5938 11.6152 22.5508 10.6631 23.7812 10.0479C25.0117 9.42285 26.4424 9.11035 28.0732 9.11035ZM28.2783 13.0068C27.6045 13.0068 27.0381 13.2217 26.5791 13.6514C26.1299 14.0713 25.8662 14.7354 25.7881 15.6436H30.71C30.7002 15.1553 30.6025 14.7109 30.417 14.3105C30.2314 13.9102 29.958 13.5928 29.5967 13.3584C29.2451 13.124 28.8057 13.0068 28.2783 13.0068Z" fill="#222222"/>
<path d="M43.498 26L37.1699 9.40332H43.1465L45.959 19.2178C45.9883 19.3057 46.0371 19.5303 46.1055 19.8916C46.1836 20.2529 46.2227 20.5898 46.2227 20.9023H46.3252C46.3252 20.5703 46.3594 20.2529 46.4277 19.9502C46.4961 19.6475 46.5498 19.4131 46.5889 19.2471L49.5332 9.40332H55.4951L49.167 26H43.498Z" fill="#222222"/>
<path d="M64.958 9.11035C66.5693 9.11035 67.9609 9.39355 69.1328 9.95996C70.3047 10.5166 71.208 11.3564 71.8428 12.4795C72.4775 13.6025 72.7949 15.0088 72.7949 16.6982V19.2471H62.5557C62.6045 20.1162 62.9268 20.8291 63.5225 21.3857C64.1279 21.9424 65.0166 22.2207 66.1885 22.2207C67.2236 22.2207 68.1709 22.1182 69.0303 21.9131C69.8994 21.708 70.793 21.3906 71.7109 20.9609V25.0771C70.9102 25.4971 70.0361 25.8047 69.0889 26C68.1416 26.1953 66.9453 26.293 65.5 26.293C63.8301 26.293 62.3359 25.9951 61.0176 25.3994C59.6992 24.8037 58.6592 23.8809 57.8975 22.6309C57.1455 21.3809 56.7695 19.7744 56.7695 17.8115C56.7695 15.8193 57.1113 14.1836 57.7949 12.9043C58.4785 11.6152 59.4355 10.6631 60.666 10.0479C61.8965 9.42285 63.3271 9.11035 64.958 9.11035ZM65.1631 13.0068C64.4893 13.0068 63.9229 13.2217 63.4639 13.6514C63.0146 14.0713 62.751 14.7354 62.6729 15.6436H67.5947C67.585 15.1553 67.4873 14.7109 67.3018 14.3105C67.1162 13.9102 66.8428 13.5928 66.4814 13.3584C66.1299 13.124 65.6904 13.0068 65.1631 13.0068Z" fill="#222222"/>
<path d="M86.418 9.11035C88.127 9.11035 89.5234 9.59375 90.6074 10.5605C91.6914 11.5273 92.2334 13.0752 92.2334 15.2041V26H86.5059V16.9473C86.5059 15.8438 86.3447 15.0137 86.0225 14.457C85.71 13.8906 85.2021 13.6074 84.499 13.6074C83.415 13.6074 82.6875 14.0518 82.3164 14.9404C81.9453 15.8193 81.7598 17.084 81.7598 18.7344V26H76.0322V9.40332H80.3535L81.1299 11.6006H81.3496C81.7012 11.0732 82.1211 10.624 82.6094 10.2529C83.0977 9.88184 83.6592 9.59863 84.2939 9.40332C84.9287 9.20801 85.6367 9.11035 86.418 9.11035Z" fill="#222222"/>
<path d="M110.939 26H104.574V7.64697H98.8218V2.44238H116.675V7.64697H110.939V26Z" fill="#2388E2"/>
<path d="M127.89 7.42139C129.663 7.42139 131.193 7.73291 132.482 8.35596C133.771 8.96826 134.765 9.89209 135.463 11.1274C136.162 12.3628 136.511 13.9097 136.511 15.7681V18.5718H125.248C125.301 19.5278 125.656 20.312 126.311 20.9243C126.977 21.5366 127.955 21.8428 129.244 21.8428C130.382 21.8428 131.424 21.73 132.37 21.5044C133.326 21.2788 134.309 20.9297 135.318 20.457V24.9849C134.438 25.4468 133.476 25.7852 132.434 26C131.392 26.2148 130.076 26.3223 128.486 26.3223C126.649 26.3223 125.006 25.9946 123.556 25.3394C122.105 24.6841 120.961 23.6689 120.124 22.2939C119.296 20.9189 118.883 19.1519 118.883 16.9927C118.883 14.8013 119.259 13.002 120.011 11.5947C120.763 10.1768 121.815 9.12939 123.169 8.45264C124.522 7.76514 126.096 7.42139 127.89 7.42139ZM128.116 11.7075C127.375 11.7075 126.751 11.9438 126.247 12.4165C125.752 12.8784 125.462 13.6089 125.376 14.6079H130.791C130.78 14.0708 130.672 13.582 130.468 13.1416C130.264 12.7012 129.963 12.3521 129.566 12.0942C129.179 11.8364 128.696 11.7075 128.116 11.7075Z" fill="#2388E2"/>
<path d="M146.372 26H140.072V0.927734H146.372V26Z" fill="#2388E2"/>
<path d="M158.957 7.42139C160.729 7.42139 162.26 7.73291 163.549 8.35596C164.838 8.96826 165.832 9.89209 166.53 11.1274C167.228 12.3628 167.577 13.9097 167.577 15.7681V18.5718H156.314C156.368 19.5278 156.722 20.312 157.377 20.9243C158.043 21.5366 159.021 21.8428 160.31 21.8428C161.449 21.8428 162.491 21.73 163.436 21.5044C164.392 21.2788 165.375 20.9297 166.385 20.457V24.9849C165.504 25.4468 164.542 25.7852 163.5 26C162.458 26.2148 161.143 26.3223 159.553 26.3223C157.716 26.3223 156.072 25.9946 154.622 25.3394C153.172 24.6841 152.028 23.6689 151.19 22.2939C150.363 20.9189 149.949 19.1519 149.949 16.9927C149.949 14.8013 150.325 13.002 151.077 11.5947C151.829 10.1768 152.882 9.12939 154.235 8.45264C155.589 7.76514 157.163 7.42139 158.957 7.42139ZM159.182 11.7075C158.441 11.7075 157.818 11.9438 157.313 12.4165C156.819 12.8784 156.529 13.6089 156.443 14.6079H161.857C161.846 14.0708 161.739 13.582 161.535 13.1416C161.331 12.7012 161.03 12.3521 160.632 12.0942C160.246 11.8364 159.762 11.7075 159.182 11.7075Z" fill="#2388E2"/>
<path d="M184.706 20.3926C184.706 21.5527 184.448 22.5786 183.932 23.4702C183.417 24.3618 182.589 25.0601 181.451 25.5649C180.323 26.0698 178.835 26.3223 176.987 26.3223C175.688 26.3223 174.522 26.2524 173.491 26.1128C172.47 25.9731 171.434 25.7046 170.381 25.3071V20.2637C171.53 20.79 172.701 21.1714 173.894 21.4077C175.086 21.6333 176.026 21.7461 176.713 21.7461C177.422 21.7461 177.938 21.6709 178.26 21.5205C178.593 21.3594 178.76 21.123 178.76 20.8115C178.76 20.543 178.647 20.3174 178.421 20.1348C178.207 19.9414 177.814 19.7212 177.245 19.4741C176.687 19.2271 175.897 18.894 174.876 18.4751C173.867 18.0562 173.023 17.5996 172.347 17.1055C171.681 16.6113 171.181 16.0205 170.848 15.333C170.515 14.6455 170.349 13.8022 170.349 12.8032C170.349 11.02 171.036 9.67725 172.411 8.7749C173.786 7.87256 175.607 7.42139 177.874 7.42139C179.077 7.42139 180.21 7.55566 181.273 7.82422C182.337 8.08203 183.438 8.46338 184.577 8.96826L182.853 13.0288C181.95 12.6206 181.037 12.293 180.113 12.0459C179.189 11.7988 178.454 11.6753 177.906 11.6753C177.412 11.6753 177.03 11.7397 176.762 11.8687C176.493 11.9976 176.359 12.1855 176.359 12.4326C176.359 12.6582 176.45 12.8569 176.633 13.0288C176.826 13.2007 177.186 13.3994 177.712 13.625C178.239 13.8506 179.007 14.1675 180.017 14.5757C181.08 15.0054 181.956 15.4673 182.643 15.9614C183.341 16.4448 183.857 17.0356 184.19 17.7339C184.534 18.4321 184.706 19.3184 184.706 20.3926Z" fill="#2388E2"/>
</svg>
